<svg width="48" height="48" viewBox="0 0 48 48" fill="none" xmlns="http://www.w3.org/2000/svg">
<path d="M48 24C48.0057 26.7264 47.5388 29.4332 46.62 32C44.9626 36.6742 41.8979 40.7201 37.8473 43.5814C33.7968 46.4428 28.9593 47.9791 24 47.9791C19.0407 47.9791 14.2032 46.4428 10.1527 43.5814C6.1021 40.7201 3.03741 36.6742 1.37999 32C-0.459876 26.8254 -0.459876 21.1747 1.37999 16C3.03741 11.3259 6.1021 7.28003 10.1527 4.41867C14.2032 1.5573 19.0407 0.0209961 24 0.0209961C28.9593 0.0209961 33.7968 1.5573 37.8473 4.41867C41.8979 7.28003 44.9626 11.3259 46.62 16C47.5388 18.5669 48.0057 21.2737 48 24Z" fill="white"/>
<path d="M48 24C48.0057 26.7264 47.5388 29.4331 46.62 32H1.37999C-0.459876 26.8253 -0.459876 21.1747 1.37999 16H46.62C47.5388 18.5669 48.0057 21.2736 48 24Z" fill="#0036A7"/>
<path d="M46.62 32C44.9626 36.6741 41.8979 40.72 37.8473 43.5814C33.7968 46.4427 28.9593 47.9791 24 47.9791C19.0407 47.9791 14.2032 46.4427 10.1527 43.5814C6.10212 40.72 3.03743 36.6741 1.38 32H46.62Z" fill="#D62718"/>
</svg>
